<?xml version="1.0" encoding="utf-8"?>
<!-- Generator: Adobe Illustrator 21.1.0, SVG Export Plug-In . SVG Version: 6.00 Build 0)  -->
<svg version="1.1" id="Layer_1" xmlns="http://www.w3.org/2000/svg" xmlns:xlink="http://www.w3.org/1999/xlink" x="0px" y="0px"
	 viewBox="0 0 297.6 96.3" style="enable-background:new 0 0 297.6 96.3;" xml:space="preserve">
<style type="text/css">
	.st0{fill:#FFFFFF;}
</style>
<g>
	<path class="st0" d="M-0.3,46.6c0.4,3.4,0.9,5.3,1.5,5.9c0.3,0.3,0.7,0.4,1,0.4c0.5,0,1-0.3,1.5-0.8c0.7-0.7,0.7-1.2,0.8-2.9
		c0.1-1.3,0.2-4.7,0.1-8.5c-0.1-1.8-0.1-4.6-0.1-7.8c0-3.9,0-8.4-0.1-12.2C4,6.5,3.9,5.4,3.3,4.7C3.1,4.2,2.6,4,2.1,4.1
		c-0.5,0-1,0.2-1.5,0.5c-1.1,0.8-1,2.5-1,4.1c0,0.2,0,0.5,0,0.7C-0.5,18.5-0.6,44.2-0.3,46.6z"/>
	<path class="st0" d="M14.6,8.9l4.6,0.2l0.2,7.7c0.1,4.7,0.3,10.2,0.4,12.4C20,31.5,20,37.1,20,41.8c0,1.8,0,3.5,0,4.9
		c0,2.9,0,3.7,0,3.9c0,0.4,0.3,0.8,0.8,1c0.4,0.2,0.8,0.3,1.3,0.3c0.7,0,1.3-0.2,1.7-0.6c0.4-0.6,0.4-0.8,0.4-9.7
		c0-5,0-14.2-0.1-20.8c-0.1-6.5-0.1-10.4,0-11.4c0.8-0.1,2.9-0.2,5.5-0.2c6.1-0.3,7.6-0.3,7.6-2.7l0-0.2c0-0.5,0-1-0.4-1.4
		c-0.6-0.6-1.9-0.6-6.5-0.6h-4.4C9.8,4.2,7.7,4.4,7.6,6.3c-0.1,0.6,0,1,0.3,1.4C8.6,8.5,10.1,8.8,14.6,8.9z"/>
	<path class="st0" d="M41.2,11.6c0.3,0.2,0.7,0.3,1.1,0.3c0.6,0,1.2-0.2,1.7-0.6c1.1-1.3,1.5-3,1.8-4.7C46,4.9,46,3.3,45.8,1.8
		l0-0.1c-0.4-1.2-1.3-2-2.4-2.2l-0.1,0l-0.1,0c-1,0.1-1.6,1-1.6,2.3c0,1.9-0.3,3.8-0.6,5.6c-0.1,0.8-0.3,1.6-0.3,2.4
		C40.4,10.5,40.6,11.2,41.2,11.6z"/>
	<path class="st0" d="M62.1,26.6c-7-5.8-8.8-9.5-6.9-14c0.6-1.5,2-3.1,3.1-3.6c1.1-0.6,2.8-0.5,4,0.2c1.4,0.7,2.8,2.1,2.9,2.8
		c0.2,1.1,1.2,2.3,2.3,2.2c0.6-0.1,1.1-0.5,1.3-1.2c0.5-1.6-0.4-4.3-2-5.9c-1.9-1.7-4.9-2.9-7.5-2.9c-0.4,0-0.9,0-1.4,0.1
		c-1.9,0.4-3.6,1.3-5,2.9c-1.8,2-2.6,4-2.8,6.7c-0.6,6.3,1.1,9.5,8.1,15.5c5,4.3,7.3,6.9,8.5,9.8c1.5,3.4,0.6,5.9-2.8,7.6
		c-3.8,2.1-8.5,1.3-11.6-2.1c-1.4-1.5-2.2-3.3-2.7-5.8c-0.2-2.1-0.8-3.3-1.8-3.6c-0.4-0.1-0.8,0-1.1,0.3c-0.7,0.5-1,1.8-1,3.9
		c0,6.4,3.7,11.1,10,12.6c0.9,0.2,2.1,0.4,3.4,0.4c1.5,0,3.1-0.2,4.3-0.5c4.6-1.3,7.4-4,8.4-8.2c0.6-2.5,0.2-5-1.2-7.9
		C69.4,33.5,65.9,29.6,62.1,26.6z"/>
	<path class="st0" d="M113.3,31c0.2-1.2,0.1-1.9-1-2.7c-0.6-0.3-1-1.1-1.9-4.5c-0.3-1.4-1.4-5-2.3-8c-0.9-2.9-1.6-6-1.8-6.9
		c-0.3-2-0.6-3-1.6-3.4l-0.2-0.1h-0.1c-0.1,0-0.2-0.1-0.3-0.1c-0.7,0-1.6,0.3-1.8,0.9c-0.1,0.3-0.8,2.5-1,3
		c-0.4,1.3-1.6,4.8-2.8,8.3l-3.8,10.8c-1.1,3.2-2.7,7.6-3.9,10.3c-3,7-3.4,8.9-3.4,11.5c-0.1,2.1,0.3,2.5,0.4,2.6
		c0.4,0.5,0.8,0.7,1.1,0.7c0,0,0.1,0,0.1,0c0.8-0.1,1.6-1,2.7-3.4c0.2-0.4,0.5-1.3,0.9-2.4c0.5-1.3,1.1-2.9,1.7-4.3
		c1-2.5,2.2-5.6,3-7.7c1.2-3.3,1.4-3.3,1.9-3.2c0.4,0.1,2.6,0.4,4.9,0.7c2.2,0.3,3.6,0.5,4.1,0.6c0.4,1.2,2.2,7.8,3.6,13.2
		c1.1,4.3,1.7,5.5,2.5,6.2c0.6,0.5,1,0.5,1.6,0c0.4-0.3,0.8-0.8,1.1-1.4c0.6-1.4,0.2-3.8-2.1-12C113.3,33.8,113.1,32,113.3,31z
		 M103.7,16.3c0,0.5,2.6,9.6,3.3,11.8c-0.4,0-1,0-1.8,0c-4.6,0-5-0.5-5-1.1c0-0.9,1.8-6.9,3-9.5l0.3-0.7
		C103.6,16.6,103.7,16.5,103.7,16.3z"/>
	<path class="st0" d="M158.9,39.3c0.1-1.8,0-2.8-0.3-4c-1-4.1-3.7-8-7.2-10.6l-0.6-0.5l0.2-0.2c1.2-1.1,2.5-3.4,3-5
		c0.2-0.7,0.6-2.4,0.7-3.7c0.5-4.1-0.5-7.1-2.9-9c-2.3-1.9-5.1-2.6-10.9-2.6c-3.1,0-4.1,0.2-4.6,1.4c-0.1,0.2-0.2,0.6-0.2,18.8
		c0,10.5-0.1,19.1-0.3,20.2c-0.4,2.8,0,4,1.4,5.6c0.9,1,2.2,1.6,4.2,2.1c0.5,0.1,1.1,0.1,1.9,0.1c1.8,0,4.2-0.2,5.8-0.6
		c2.5-0.6,4.3-1.5,6-3C157.6,46.1,158.7,43.4,158.9,39.3z M140.7,35.8c0.1-5,0.1-7.7,0.2-8c0.2-0.2,1.5-0.4,3.2-0.4
		c0.5,0,0.9,0,1.4,0.1c1.6,0.2,2.7,1,5.3,3.7c2.1,2.2,2.9,3.5,3.2,6.4c0.3,2.5,0,4-1.1,5.6c-1.4,2.1-3.2,3.4-5.8,4.1
		c-0.8,0.1-1.8,0.2-2.4,0.2c-1.5,0-3.4-0.5-3.7-0.8C140.7,46.2,140.7,41.9,140.7,35.8z M149.4,17.9L149.4,17.9
		c-0.8,2.1-2.7,3.6-5.8,4.5l-0.2,0.1c-1,0.3-1.8,0.5-2.1,0.3c-0.5-0.4-0.5-2.5-0.5-6.5l0-0.9c0-4.6,0-6.4,0.1-6.7l0.1-0.1
		c0,0,0.2-0.2,1.4-0.2c0.3,0,0.7,0,1.3,0.1l0.1,0c2.4,0.1,2.5,0.1,3.4,0.6c1.8,1,2.6,2.9,2.6,6C149.9,16.5,149.8,17,149.4,17.9z"/>
	<path class="st0" d="M188.5,52.3c0.4,0,0.8-0.2,1.2-0.5c1.3-1.1,1.1-2.3,0.1-4.3c-0.3-1-1.3-2.9-2.4-4.9c-4-7.3-6.7-13.9-6.7-15.6
		c0-0.9,0-0.9,2-3.2c3.7-4,5.3-7.1,4.9-9.9c-0.3-2.6-1.7-5.1-3.9-6.7c-2.2-1.8-7-3.7-9.2-3.7c-0.7,0-8,1.4-8.5,1.9
		c-1.6,0.9-1.7,3-1.2,21.1l0,1.9c0.3,11.5,0.4,17.3,0.7,20.2c0.2,2.7,0.6,3.4,1.9,3.3l0.2,0c1.1,0,1.9-0.7,2.2-1.9
		c0.2-0.9,0.4-18.3,0.1-20l0-0.7l2.8-0.6l2.8-0.6l0.2,0.2c0.1,0.2,0.7,1.6,1.4,3.4c2.8,7.7,7.4,16.8,9.8,19.4
		C187.4,52,188,52.3,188.5,52.3z M169.1,9.3c0.8-0.3,3.4-0.8,4.6-1c0.2,0,0.4,0,0.6,0c0.2,0,0.4,0,0.5,0c3.4,0.1,6.6,1.7,7.7,3.8
		c0.4,0.8,0.4,1,0.4,2.3c-0.3,4.7-4.1,8.2-10.1,9.6c-2,0.4-3,0.3-3.2,0.2c-0.6-0.4-0.6-2.5-0.6-8.4C169,14.3,169,12,169.1,9.3z"/>
	<path class="st0" d="M215.1,48.4c-0.3-1.4-1.4-1.4-8.8-1.4h-6.4l-0.1-0.2c-0.2-1.1,0.1-12.3,0.3-16.9l0-0.9l5.3-0.1
		c6-0.1,6.8-0.1,7.3-1.6c0.3-1,0-1.8-0.6-2.2c-0.2-0.1-0.6-0.4-6.7-0.5l-5.6-0.1l-0.1-1.7c-0.1-1.3-0.2-7.3-0.3-11.2l0-2.2
		c0-0.4,0-0.5-0.1-0.5c0,0,0.1,0,0.2-0.1c1.2-0.4,4.1-0.7,9.2-0.9c4.8-0.2,5.7-0.3,6-0.4l0.1-0.1c0.4-0.2,0.7-0.6,0.8-1.1
		c0.1-0.5,0.1-1.1-0.2-1.5c-0.7-1-2.2-1.1-5.9-1.1c-3.2,0-10.3,0.4-11.9,0.8c-2.3,0.5-2.5,1.8-2.5,5c0,2.9,0,10.7,0.1,18.9
		c0.1,11.4,0.1,17.8-0.1,19c-0.2,2.3-0.1,3.4,1.1,3.9c0.1,0.1,0.3,0.1,0.4,0.1c0.1,0.1,0.3,0.1,0.3,0.1c0.3,0,0.9,0,1.3-0.1
		c0.6-0.1,3.7-0.1,6.9-0.2l1.2,0c4-0.1,7.1-0.2,7.7-0.5C214.6,50.5,215.2,49.4,215.1,48.4z"/>
	<path class="st0" d="M241.6,48.4c-0.3-1.4-1.4-1.4-8.8-1.4h-6.4l-0.1-0.2c-0.2-1.1,0.1-12.3,0.3-16.9l0-0.9l5.3-0.1
		c6-0.1,6.8-0.1,7.3-1.6c0.3-1,0-1.8-0.6-2.2c-0.2-0.1-0.6-0.4-6.7-0.5l-5.6-0.1l-0.1-1.7c-0.1-1.3-0.2-7.2-0.3-11.1l0-2.3
		c0-0.4,0-0.5-0.1-0.5c0,0,0.1,0,0.2-0.1c1.2-0.4,4.1-0.7,9.2-0.9c4.8-0.2,5.7-0.3,6-0.4l0.1-0.1c0.4-0.2,0.7-0.6,0.8-1.1
		c0.1-0.5,0.1-1.1-0.2-1.5c-0.7-1-2.2-1.1-5.9-1.1c-3.2,0-10.3,0.4-11.9,0.8c-2.3,0.5-2.5,1.8-2.5,5c0,2.9,0,10.7,0.1,18.9
		c0.1,11.4,0.1,17.8-0.1,19c-0.2,2.3-0.1,3.4,1.1,3.9c0.1,0.1,0.3,0.1,0.4,0.1c0.1,0.1,0.3,0.1,0.3,0.1c0.3,0,0.9,0,1.3-0.1
		c0.6-0.1,3.7-0.1,6.9-0.2l1.2,0c4-0.1,7.1-0.2,7.7-0.5C241.1,50.5,241.7,49.4,241.6,48.4z"/>
	<path class="st0" d="M246.2,51.6L246.2,51.6c0.4,0.2,0.7,0.3,1.4,0.3c0.5,0,1.2,0,2.2-0.1c0.8,0,2.9-0.1,5.3-0.1
		c1.9,0,4.1,0,6.2-0.1c3.6,0,9-0.1,9.6-0.3c0.9-0.2,1.1-0.5,1.5-1.4c0.5-1.3,0.1-2.3-1.1-3c-0.8-0.4-1.3-0.4-9.1-0.1
		c-4.3,0.1-8.9,0.2-10.2,0.2l-1.5,0l2.1-4.3c3.6-7.1,4.9-9.7,8.8-16.7c5.6-9.6,9-16.8,9.3-19.8c0.1-0.9,0.1-1.2-0.4-2
		c-0.7-0.8-1.4-1.1-4.3-1.1c-0.9,0-2.1,0-3.6,0.1l-1.9,0.1c-7.4,0.2-8.4,0.3-8.7,1.9c-0.2,0.8-0.2,1.7,0.9,2.2
		c0.3,0.1,3.2,0.3,6.1,0.4c2.1,0.1,6.6,0.2,6.7,0.7c0,0.4-1.3,3.3-6,11.2c-3.4,5.7-7.3,13.1-10.4,19.9
		C245.3,47.8,244.7,50.3,246.2,51.6z"/>
	<path class="st0" d="M291.1,7.9c4.8-0.2,5.7-0.3,6-0.4l0.1-0.1c0.4-0.2,0.7-0.6,0.8-1.1c0.1-0.5,0.1-1.1-0.2-1.5
		c-0.7-1-2.2-1.1-5.9-1.1c-3.2,0-10.3,0.4-11.9,0.8c-2.3,0.5-2.5,1.8-2.5,5c0,2.9,0,10.7,0.1,18.9c0.1,11.4,0.1,17.8-0.1,19
		c-0.2,2.3-0.1,3.4,1.1,3.9c0.1,0.1,0.3,0.1,0.4,0.1c0.1,0.1,0.3,0.1,0.3,0.1c0.3,0,0.9,0,1.3-0.1c0.6-0.1,3.7-0.1,6.9-0.2l1.2,0
		c4-0.1,7.1-0.2,7.7-0.5c0.8-0.4,1.3-1.5,1.2-2.5c-0.3-1.4-1.4-1.4-8.8-1.4h-6.4l-0.1-0.2c-0.2-1.1,0.1-12.3,0.3-16.9l0-0.9l5.3-0.1
		c6-0.1,6.8-0.1,7.3-1.6c0.3-1,0-1.8-0.6-2.2c-0.2-0.1-0.6-0.4-6.7-0.5l-5.6-0.1l-0.1-1.7c-0.1-1.3-0.2-7.2-0.3-11.1l0-2.3
		c0-0.4,0-0.5-0.1-0.5c0,0,0.1,0,0.2-0.1C283.1,8.4,286,8.1,291.1,7.9z"/>
	<path class="st0" d="M85.4,74c-2-2.7-7.4-8.2-9.1-9.1c-0.5-0.3-1.1-0.4-1.4-0.4l-0.1,0l-0.1,0c-0.8,0.1-1.4,0.5-1.6,1.2l0,0.1
		c-0.1,0.6,0,25.3,0.1,27.7c0.1,1.9,0.5,2.5,2.1,3l0,0c0.4,0.1,1.1,0.2,2.1,0.2c0.3,0,0.7,0,1,0c1.9,0,2.5-0.2,3.6-0.5
		c5.4-1.7,8.9-6,8.5-10.5C90.2,82.4,88,77.4,85.4,74z M86.7,86.5c0,1.5-0.5,2.6-1.4,3.7c-1.4,1.6-3.1,2.5-6,3l0,0
		c-1,0.2-2.1,0.4-2.4,0.5l0,0c-0.1-0.5-0.1-1.9-0.1-3.6c0-1.7-0.1-4.2-0.1-6.3l0-1.3c0-0.6,0-1.4-0.1-2.2c-0.1-2.1-0.1-4.7-0.1-6.7
		v-4.1c1.9,1.3,5.5,6,7.8,9.6c1.1,1.7,2.2,4.3,2.4,5.3C86.8,85,86.8,85.8,86.7,86.5z"/>
	<path class="st0" d="M107.3,64.1c-2.2,0-6.9,0.3-8.1,0.5c-1.7,0.4-1.8,1.3-1.8,3.5c0,0.9,0,6.6,0,12.7c0.1,7.6,0,11.9,0,12.8
		c-0.1,1.6-0.1,2.4,0.8,2.8c0.1,0.1,0.2,0.1,0.3,0.1c0.1,0,0.2,0.1,0.2,0.1c0.2,0,0.6,0,0.9,0c0.4,0,2.5-0.1,4.6-0.1l0.8,0
		c2.3,0,4.7-0.1,5.2-0.3c0.6-0.3,1-1.1,0.9-1.9c-0.2-1.1-1.2-1.1-6.1-1.1H101l0,0c-0.1-0.7,0-8,0.2-11.3l0-0.5l3.4,0
		c4.1-0.1,4.7-0.1,5.1-1.2c0.2-0.7,0-1.4-0.5-1.7c-0.2-0.1-0.5-0.3-4.6-0.4l-3.6,0l-0.1-1c-0.1-0.9-0.2-4.9-0.2-7.5l0-1.5
		c0-0.1,0-0.2,0-0.2c0,0,0,0,0,0c0.8-0.3,2.7-0.4,6.2-0.6c3.3-0.2,3.9-0.2,4-0.3l0.1-0.1c0.3-0.2,0.5-0.5,0.6-0.8
		c0.1-0.4,0-0.8-0.2-1.2C111,64.1,109.9,64.1,107.3,64.1z"/>
	<path class="st0" d="M129,78.8c-4.7-3.9-5.9-6.2-4.6-9.3c0.4-1,1.3-2,2-2.3c0.7-0.4,1.8-0.3,2.6,0.1c1,0.5,1.8,1.4,1.9,1.8
		c0.2,0.8,0.9,1.7,1.7,1.6c0.5-0.1,0.8-0.4,1-0.9c0.4-1.1-0.3-3-1.4-4.1c-1.3-1.2-3.4-2-5.2-2c-0.3,0-0.6,0-1,0.1
		c-1.3,0.3-2.5,0.9-3.5,2c-1.2,1.4-1.8,2.7-1.9,4.6c-0.4,4.3,0.7,6.5,5.5,10.6c3.4,2.9,4.9,4.6,5.7,6.5c0.9,2.2,0.4,3.8-1.8,4.9
		c-2.5,1.4-5.6,0.8-7.6-1.4c-0.9-1-1.5-2.2-1.8-3.8c-0.1-1-0.4-2.3-1.3-2.6c-0.3-0.1-0.6,0-0.9,0.2c-0.5,0.4-0.7,1.3-0.7,2.8
		c0,4.4,2.6,7.6,6.9,8.6c0.6,0.2,1.5,0.2,2.3,0.2c1.1,0,2.1-0.1,2.9-0.3c3.1-0.9,5.1-2.8,5.8-5.6c0.4-1.7,0.2-3.4-0.8-5.4
		C134,83.5,131.5,80.8,129,78.8z"/>
	<path class="st0" d="M147.3,83.2c0-2.7,0-5.7-0.1-8.2c-0.2-9.6-0.3-10.4-0.7-10.9c-0.2-0.3-0.6-0.5-1-0.5c-0.4,0-0.7,0.1-1.1,0.4
		c-0.8,0.6-0.8,1.8-0.7,2.9l0,0.4c0,3.8-0.2,23.3,0.1,25.1c0.4,3.5,0.9,3.9,1.1,4.1c0.1,0.1,0.4,0.3,0.8,0.3c0.3,0,0.7-0.1,1.1-0.6
		c0.5-0.5,0.5-0.9,0.6-2.1c0.1-0.9,0.1-3.2,0-5.7C147.3,87.3,147.3,85.4,147.3,83.2z"/>
	<path class="st0" d="M169.6,77.7c-0.6,0.1-2.2,0.1-4.1,0c-3-0.1-3.3-0.1-3.7,0.3c-0.4,0.4-0.6,1.1-0.3,1.8c0.4,0.9,1.7,1.2,6.2,1.4
		l2.3,0.1l0.1,0.4c0.1,0.2,0.1,1.3,0.1,2.9c0,1.8-0.1,2.6-0.4,3.8c-0.7,2.9-1.1,3.8-2.1,4.4c-1.6,0.9-4.8-0.1-6.6-2
		c-1.5-1.6-2.4-6.6-2.1-12c0.3-4.9,1-7.2,2.8-9.5c1.8-2.2,5.1-3.6,6.4-3.2c0.1,0,0.6,0.4,1.3,0.9c1.1,1,2,1.4,2.7,1.2
		c0.3-0.1,0.7-0.3,1-0.9c0.3-0.8-0.2-1.6-1.1-2.5c-1.2-1.2-2.7-1.9-4.1-2c-0.3-0.1-0.5-0.1-0.6-0.1c-2.9,0-6,1.6-8.3,4.2
		c-0.9,1-1.2,1.5-1.9,3.2l-0.3,0.7c-0.4,1-0.7,1.8-0.8,2.4c-0.7,3.2-0.8,11-0.4,13.7c0.4,2.7,1.2,4.5,2.9,6.5l0,0
		c1.5,1.7,2.9,2.5,5.5,3c0.5,0.1,1.1,0.1,1.7,0.1c1,0,2-0.1,2.7-0.3c1.5-0.5,3.1-2.1,3.9-4c0.5-1.1,0.9-2.9,1.2-5.8
		c0.4-3.2,0.4-4.7,0.1-6C173,78.2,171.8,77.4,169.6,77.7z"/>
	<path class="st0" d="M199,74.8c0-1.6-0.1-3.3-0.1-4.6c0-0.9-0.2-5.2-0.3-5.6c-0.1-0.5-0.5-1.2-1.6-1.2c-1.4,0-1.4,0.7-1.4,4.7
		c0,2.1,0.1,6.3,0.2,9.5c0.1,3.2,0.2,7.3,0.2,9V88c-1.1-2.1-2.8-5.4-4.7-9.3l-0.3-0.6c-1.2-2.5-2.6-5.4-3.3-6.5
		c-0.6-1.4-1.8-3.7-2.4-4.9c-1.2-2.7-1.8-3.4-2.6-3.4c-0.2,0-0.4,0.1-0.5,0.1c-0.6,0.3-1,1.2-1.3,2.7c-0.2,1.5-0.2,9.5,0,19.1
		c0.2,8.3,0.4,10.2,1.1,11c0.2,0.3,0.5,0.4,0.9,0.5c0,0,0.1,0,0.1,0c0.3,0,0.7-0.1,1-0.4c0.7-0.6,0.8-1.8,0.6-6.4
		c-0.2-4.2-0.3-13.3-0.2-16.8c0.2,0.3,0.4,0.7,0.5,1.1l2.6,5.1c0.7,1.3,2.1,4,3,6c3.3,6.7,4.9,9.8,5.8,10.9c0.4,0.5,1,0.7,1.5,0.5
		c0.6-0.1,1-0.6,1.2-1.2c0.5-0.9,0.2-12.1,0.1-15.9C199,78.3,199,76.6,199,74.8z"/>
	<path class="st0" d="M217.7,78.8c-4.7-3.9-5.9-6.2-4.6-9.3c0.4-1,1.3-2,2-2.3c0.7-0.4,1.8-0.3,2.6,0.1c1,0.5,1.8,1.4,1.9,1.8
		c0.2,0.8,0.9,1.7,1.7,1.6c0.5-0.1,0.8-0.4,1-0.9c0.4-1.1-0.3-3-1.4-4.1c-1.3-1.2-3.4-2-5.2-2c-0.3,0-0.6,0-1,0.1
		c-1.3,0.3-2.5,0.9-3.5,2c-1.2,1.4-1.8,2.7-1.9,4.6c-0.4,4.3,0.7,6.5,5.5,10.6c3.4,2.9,4.9,4.6,5.7,6.5c0.9,2.2,0.4,3.8-1.8,4.9
		c-2.5,1.4-5.6,0.8-7.6-1.4c-0.9-1-1.5-2.2-1.8-3.8c-0.1-1-0.4-2.3-1.3-2.6c-0.3-0.1-0.6,0-0.9,0.2c-0.5,0.4-0.7,1.3-0.7,2.8
		c0,4.4,2.6,7.6,6.9,8.6c0.6,0.2,1.5,0.2,2.3,0.2c1.1,0,2.1-0.1,2.9-0.3c3.1-0.9,5.1-2.8,5.8-5.6c0.4-1.7,0.2-3.4-0.8-5.4
		C222.7,83.5,220.2,80.8,217.7,78.8z"/>
	<path class="st0" d="M295.6,78.7c-0.6-0.8-1.8-0.8-2.9-0.7l-0.4,0c-5.5,0-48.4-0.1-50.1,0.1c-3.5,0.4-3.9,0.9-4.1,1.1
		c-0.2,0.2-0.7,1,0.3,1.9c0.5,0.5,0.9,0.5,2.1,0.6c0.6,0,1.8,0.1,3.4,0.1c0.7,0,1.5,0,2.4,0c1.2,0,3.1,0,5.3-0.1
		c2.7,0,5.7,0,8.2-0.1c3.7-0.1,10.1-0.2,16.3-0.2c16.8-0.2,19-0.2,19.5-0.5l0,0c0.4-0.2,0.6-0.6,0.5-1
		C295.9,79.4,295.8,79.1,295.6,78.7z"/>
	<path class="st0" d="M53.3,78C51.6,77.8,8.7,77.9,3.3,78l-0.5,0c-1.1,0-2.4,0-2.9,0.8c-0.2,0.4-0.3,0.7-0.3,1.1
		c-0.1,0.4,0.1,0.8,0.5,1l0,0c0.5,0.2,2.7,0.3,19.5,0.5c6.2,0.1,12.6,0.1,16.3,0.2c2.5,0.1,5.6,0.1,8.2,0.1c2.2,0,4.1,0,5.3,0.1
		c0.8,0,1.6,0,2.4,0c1.5,0,2.8-0.1,3.4-0.1c1.2,0,1.6-0.1,2.1-0.6c1-0.9,0.5-1.7,0.3-2C57.2,78.9,56.8,78.4,53.3,78z"/>
</g>
</svg>
